<svg id="visual" viewBox="0 0 960 540" width="960" height="540" xmlns="http://www.w3.org/2000/svg" xmlns:xlink="http://www.w3.org/1999/xlink" version="1.1"><rect x="0" y="0" width="960" height="540" fill="#F7CACA"></rect><path d="M0 453L20 449C40 445 80 437 120 431.8C160 426.7 200 424.3 240 431.8C280 439.3 320 456.7 360 465.3C400 474 440 474 480 473.8C520 473.7 560 473.3 600 467.2C640 461 680 449 720 442C760 435 800 433 840 432.2C880 431.3 920 431.7 940 431.8L960 432L960 0L940 0C920 0 880 0 840 0C800 0 760 0 720 0C680 0 640 0 600 0C560 0 520 0 480 0C440 0 400 0 360 0C320 0 280 0 240 0C200 0 160 0 120 0C80 0 40 0 20 0L0 0Z" fill="#f7caca"></path><path d="M0 376L20 375.3C40 374.7 80 373.3 120 370.5C160 367.7 200 363.3 240 360.5C280 357.7 320 356.3 360 352.2C400 348 440 341 480 337.5C520 334 560 334 600 341C640 348 680 362 720 362.2C760 362.3 800 348.7 840 346.5C880 344.3 920 353.7 940 358.3L960 363L960 0L940 0C920 0 880 0 840 0C800 0 760 0 720 0C680 0 640 0 600 0C560 0 520 0 480 0C440 0 400 0 360 0C320 0 280 0 240 0C200 0 160 0 120 0C80 0 40 0 20 0L0 0Z" fill="#f8a4bc"></path><path d="M0 254L20 257C40 260 80 266 120 270.5C160 275 200 278 240 280.5C280 283 320 285 360 283.2C400 281.3 440 275.7 480 273.2C520 270.7 560 271.3 600 275.3C640 279.3 680 286.7 720 286.3C760 286 800 278 840 272.8C880 267.7 920 265.3 940 264.2L960 263L960 0L940 0C920 0 880 0 840 0C800 0 760 0 720 0C680 0 640 0 600 0C560 0 520 0 480 0C440 0 400 0 360 0C320 0 280 0 240 0C200 0 160 0 120 0C80 0 40 0 20 0L0 0Z" fill="#ea80c2"></path><path d="M0 153L20 159.8C40 166.7 80 180.3 120 189C160 197.7 200 201.3 240 198.3C280 195.3 320 185.7 360 182.5C400 179.3 440 182.7 480 179C520 175.3 560 164.7 600 160.8C640 157 680 160 720 167.2C760 174.3 800 185.7 840 184.8C880 184 920 171 940 164.5L960 158L960 0L940 0C920 0 880 0 840 0C800 0 760 0 720 0C680 0 640 0 600 0C560 0 520 0 480 0C440 0 400 0 360 0C320 0 280 0 240 0C200 0 160 0 120 0C80 0 40 0 20 0L0 0Z" fill="#c466d7"></path><path d="M0 72L20 71.2C40 70.3 80 68.7 120 75.8C160 83 200 99 240 100.3C280 101.7 320 88.3 360 85C400 81.7 440 88.3 480 91.5C520 94.7 560 94.3 600 97.8C640 101.3 680 108.7 720 106.8C760 105 800 94 840 91.3C880 88.7 920 94.3 940 97.2L960 100L960 0L940 0C920 0 880 0 840 0C800 0 760 0 720 0C680 0 640 0 600 0C560 0 520 0 480 0C440 0 400 0 360 0C320 0 280 0 240 0C200 0 160 0 120 0C80 0 40 0 20 0L0 0Z" fill="#715df2"></path></svg>